<svg width="378" height="378" viewBox="0 0 378 378" fill="none" xmlns="http://www.w3.org/2000/svg">
<path d="M53.3253 0.0215374C54.4135 0.0184175 55.5018 0.0152975 56.6231 0.0120829C60.2525 0.00413569 63.8818 0.0104139 67.5112 0.0167157C70.1202 0.0140044 72.7292 0.0104426 75.3382 0.00609554C81.6784 -0.00277746 88.0185 -0.00088593 94.3587 0.00492079C99.5129 0.00944513 104.667 0.0100469 109.821 0.00787319C110.556 0.00756673 111.291 0.00726024 112.048 0.00694449C113.54 0.00630501 115.033 0.00565657 116.526 0.00499929C130.509 -0.000697771 144.491 0.00584428 158.474 0.0166C170.463 0.0255368 182.453 0.0239812 194.442 0.0147625C208.378 0.00405208 222.313 -0.000150443 236.249 0.00598706C237.736 0.00662413 239.223 0.00725288 240.709 0.00787319C241.807 0.00833602 241.807 0.00833597 242.926 0.00880815C248.073 0.0105326 253.219 0.0076254 258.366 0.00291408C265.296 -0.00329071 272.226 0.00114626 279.155 0.0127026C281.698 0.0153465 284.241 0.0145886 286.784 0.0101773C290.256 0.00471011 293.727 0.0115704 297.199 0.0215374C298.204 0.017076 299.21 0.0126145 300.246 0.00801791C307.486 0.0483227 314.314 -0.360942 320.573 3.6505C321.221 4.05011 321.868 4.44972 322.534 4.86144C324.441 6.48187 325.235 8.98739 326.198 11.2755C324.554 13.2842 323.671 14.1938 321.071 14.6435C320.241 14.6402 319.411 14.6369 318.555 14.6335C317.596 14.637 316.636 14.6405 315.648 14.6441C314.592 14.6326 313.535 14.6212 312.447 14.6094C311.327 14.6091 310.206 14.6088 309.052 14.6086C305.277 14.6041 301.503 14.5782 297.728 14.5526C295.03 14.5452 292.331 14.539 289.633 14.5345C283.81 14.5224 277.987 14.4997 272.165 14.4704C263.732 14.4284 255.299 14.4066 246.866 14.3907C233.166 14.3646 219.466 14.328 205.766 14.2821C204.946 14.2794 204.126 14.2766 203.281 14.2738C194.14 14.243 185 14.2102 175.859 14.1757C172.551 14.1633 169.243 14.1509 165.934 14.1385C165.118 14.1355 164.302 14.1324 163.461 14.1293C149.825 14.0788 136.189 14.044 122.553 14.0212C114.148 14.0064 105.744 13.978 97.3389 13.9319C91.5701 13.9012 85.8014 13.885 80.0325 13.88C76.7092 13.8767 73.3866 13.8646 70.0633 13.8391C46.3559 13.1591 46.3559 13.1591 26.1984 24.2755C17.442 33.1319 16.0418 41.5337 16.0782 53.6019C16.0769 55.1593 16.0769 55.1593 16.0756 56.7481C16.0739 60.2259 16.0794 63.7035 16.0849 67.1813C16.0852 69.6747 16.085 72.1682 16.0845 74.6617C16.0842 80.0293 16.0871 85.3969 16.0927 90.7645C16.1008 98.5251 16.1034 106.286 16.1047 114.046C16.1069 126.638 16.1135 139.23 16.123 151.821C16.1322 164.052 16.1393 176.282 16.1435 188.512C16.1438 189.266 16.144 190.02 16.1443 190.797C16.1456 194.58 16.1469 198.364 16.1481 202.147C16.1585 233.523 16.1762 264.899 16.1984 296.276C16.7076 295.24 16.7076 295.24 17.2271 294.184C17.6744 293.281 18.1218 292.377 18.5827 291.446C19.0253 290.55 19.4679 289.654 19.9239 288.73C24.465 279.985 31.4912 275.38 40.1984 271.276C40.8584 270.946 41.5184 270.616 42.1984 270.276C43.5568 270.182 44.9197 270.149 46.2813 270.148C47.1412 270.145 48.001 270.142 48.8869 270.139C49.8372 270.141 50.7874 270.142 51.7665 270.144C53.2744 270.141 53.2744 270.141 54.8127 270.138C58.2034 270.132 61.5941 270.133 64.9848 270.134C67.4073 270.131 69.8299 270.127 72.2524 270.123C77.482 270.115 82.7115 270.11 87.9411 270.107C96.2159 270.101 104.491 270.084 112.765 270.065C115.597 270.059 118.429 270.053 121.261 270.047C122.322 270.044 122.322 270.044 123.406 270.042C131.468 270.024 139.53 270.008 147.592 269.993C148.329 269.991 149.067 269.99 149.826 269.988C161.748 269.966 173.67 269.956 185.591 269.948C197.84 269.94 210.088 269.917 222.336 269.88C229.885 269.858 237.433 269.849 244.982 269.855C250.78 269.858 256.579 269.841 262.377 269.816C264.747 269.809 267.117 269.809 269.487 269.816C284.681 269.858 298.54 269.832 311.198 260.276C312.121 259.614 312.121 259.614 313.062 258.94C319.565 253.898 322.979 247.1 325.198 239.275C325.4 236.507 325.509 233.835 325.517 231.067C325.527 230.266 325.537 229.466 325.548 228.641C325.578 226.011 325.596 223.382 325.613 220.752C325.631 218.922 325.651 217.092 325.671 215.262C325.722 210.459 325.762 205.655 325.799 200.851C325.839 195.945 325.891 191.038 325.941 186.131C326.037 176.513 326.122 166.894 326.198 157.275C327.469 156.796 328.74 156.317 330.011 155.838C330.719 155.571 331.426 155.304 332.156 155.029C333.825 154.413 335.51 153.838 337.198 153.275C338.188 153.935 339.178 154.595 340.198 155.275C340.576 157.768 340.576 157.768 340.579 160.978C340.588 162.192 340.596 163.406 340.605 164.656C340.599 166.009 340.593 167.362 340.587 168.714C340.591 170.134 340.596 171.553 340.603 172.972C340.616 176.836 340.611 180.7 340.601 184.565C340.594 188.614 340.601 192.663 340.606 196.712C340.611 203.523 340.604 210.334 340.59 217.145C340.573 224.996 340.578 232.847 340.595 240.699C340.609 247.449 340.611 254.199 340.603 260.949C340.598 264.976 340.597 269.002 340.607 273.029C340.616 276.826 340.61 280.623 340.593 284.42C340.587 286.46 340.596 288.5 340.605 290.539C340.502 305.705 336.743 319.119 326.241 330.432C317.853 338.003 307.495 345.454 296.198 346.276C296.198 345.596 296.198 346.936 296.198 346.276C287.441 347.16 278.783 347.414 269.985 347.389C268.604 347.389 267.222 347.389 265.841 347.389C262.132 347.39 258.422 347.384 254.712 347.377C250.82 347.371 246.928 347.37 243.037 347.369C235.685 347.366 228.333 347.358 220.981 347.348C212.603 347.336 204.226 347.331 195.848 347.326C178.632 347.315 161.415 347.297 144.198 347.276C144.198 357.176 144.198 367.076 144.198 377.276C140.624 376.561 137.995 375.912 134.722 374.568C133.891 374.231 133.061 373.893 132.206 373.545C131.337 373.188 130.468 372.831 129.573 372.463C127.773 371.74 125.972 371.017 124.171 370.295C121.35 369.157 118.55 367.995 115.757 366.787C114.851 366.412 113.945 366.037 113.011 365.651C112.275 365.328 111.539 365.006 110.78 364.674C103.719 363.584 96.1998 367.19 89.6984 369.651C88.9082 369.942 88.118 370.233 87.3039 370.533C82.4754 372.335 77.7844 374.322 73.1262 376.528C71.1984 377.276 71.1984 377.276 68.1984 377.276C68.1984 368.696 68.1984 360.116 68.1984 351.276C60.137 351.393 60.1369 351.393 52.0761 351.546C36.8858 351.656 24.501 347.087 13.4562 336.596C5.72259 328.648 0.0701577 318.893 0.0753869 307.535C0.0733958 306.58 0.0714034 305.625 0.069352 304.64C0.0722649 303.593 0.0751781 302.547 0.0781792 301.468C0.0773248 300.354 0.0764694 299.24 0.0755891 298.092C0.0739373 294.346 0.0794517 290.599 0.0849084 286.853C0.0851903 284.172 0.0850764 281.492 0.0844659 278.812C0.0839413 273.034 0.0870827 267.257 0.0927056 261.479C0.10083 253.126 0.103435 244.773 0.104691 236.42C0.10688 222.867 0.113537 209.315 0.122994 195.763C0.132172 182.597 0.139251 169.432 0.143502 156.267C0.143896 155.05 0.143897 155.05 0.144299 153.808C0.145604 149.737 0.146867 145.667 0.14811 141.596C0.158478 107.823 0.176092 74.049 0.198434 40.2755C-0.481566 40.2755 0.858434 40.2755 0.198434 40.2755C0.310582 39.3841 0.310582 39.3841 0.424996 38.4747C2.36585 26.2398 10.6186 17.013 20.1984 9.27551C31.0648 2.15437 40.5236 -0.0353877 53.3253 0.0215374Z" fill="#6FB262"/>
<path d="M326.198 264.275C326.528 264.275 326.858 264.275 327.198 264.275C327.324 269.022 327.414 273.767 327.473 278.515C327.498 280.124 327.532 281.733 327.576 283.341C327.919 296.315 326.689 307.954 318.054 318.432C308.211 328.212 297.535 332.407 283.782 332.396C282.512 332.397 281.242 332.398 279.933 332.4C278.538 332.396 277.143 332.393 275.748 332.389C274.269 332.389 272.79 332.389 271.312 332.389C267.308 332.39 263.304 332.384 259.301 332.377C255.113 332.371 250.925 332.37 246.737 332.369C238.811 332.366 230.885 332.357 222.959 332.347C213.934 332.336 204.908 332.331 195.883 332.326C177.321 332.315 158.76 332.297 140.198 332.275C140.198 326.665 140.198 321.055 140.198 315.275C137.558 315.275 134.918 315.275 132.198 315.275C132.198 329.795 132.198 344.315 132.198 359.275C125.388 357.762 119.818 356.057 113.618 353.223C105.831 349.878 99.8878 352.979 92.4485 355.838C90.7465 356.488 89.0434 357.135 87.3391 357.779C86.5918 358.066 85.8444 358.353 85.0745 358.649C83.1985 359.275 83.1985 359.275 81.1985 359.275C81.1985 344.755 81.1985 330.235 81.1985 315.275C78.8885 315.275 76.5785 315.275 74.1985 315.275C74.1985 320.555 74.1985 325.835 74.1985 331.275C70.3848 331.411 66.576 331.51 62.761 331.588C61.6917 331.63 60.6224 331.672 59.5208 331.715C51.2857 331.841 45.4239 330.265 39.3535 324.533C34.697 319.564 32.0897 314.26 31.761 307.4C31.9851 300.707 34.2824 295.544 38.5735 290.463C43.5165 286.344 47.714 283.152 54.2867 283.148C55.5401 283.143 55.5401 283.143 56.8188 283.139C57.7369 283.141 58.655 283.142 59.6009 283.144C61.064 283.141 61.064 283.141 62.5567 283.138C65.8405 283.132 69.1243 283.133 72.4082 283.134C74.757 283.131 77.1059 283.127 79.4547 283.123C84.5228 283.115 89.5908 283.11 94.6588 283.107C102.682 283.101 110.706 283.084 118.73 283.065C121.477 283.059 124.224 283.053 126.972 283.046C127.658 283.045 128.345 283.043 129.053 283.042C136.872 283.024 144.692 283.007 152.512 282.992C153.584 282.99 153.584 282.99 154.678 282.988C166.233 282.966 177.787 282.956 189.342 282.948C201.22 282.94 213.099 282.917 224.978 282.88C231.641 282.86 238.303 282.848 244.966 282.853C251.245 282.858 257.523 282.844 263.801 282.816C266.095 282.809 268.39 282.809 270.684 282.816C292.382 282.878 309.08 280.765 325.198 265.275C325.528 264.945 325.858 264.615 326.198 264.275Z" fill="#BDD7B5"/>
<path d="M52.0774 13.1525C53.5188 13.1495 53.5188 13.1495 54.9893 13.1465C56.0369 13.1494 57.0846 13.1523 58.164 13.1553C59.2831 13.1545 60.4022 13.1536 61.5552 13.1527C65.3124 13.1511 69.0696 13.1566 72.8268 13.162C75.5171 13.1623 78.2075 13.1622 80.8978 13.1616C86.6938 13.1611 92.4898 13.1642 98.2857 13.1698C106.666 13.178 115.046 13.1806 123.426 13.1818C137.022 13.184 150.618 13.1907 164.214 13.2001C177.421 13.2093 190.628 13.2164 203.835 13.2206C204.649 13.2209 205.463 13.2212 206.302 13.2214C210.386 13.2227 214.471 13.224 218.555 13.2252C252.436 13.2356 286.317 13.2532 320.199 13.2756C320.199 13.6056 320.199 13.9356 320.199 14.2756C235.059 14.2756 149.919 14.2756 62.1986 14.2756C62.1986 98.4256 62.1986 182.576 62.1986 269.276C137.439 269.276 212.679 269.276 290.199 269.276C290.199 269.606 290.199 269.936 290.199 270.276C288.93 270.276 287.661 270.277 286.353 270.277C256.212 270.291 226.07 270.331 195.928 270.402C192.216 270.411 188.503 270.42 184.791 270.428C184.052 270.43 183.313 270.432 182.551 270.433C170.595 270.46 158.639 270.469 146.682 270.472C134.408 270.475 122.134 270.497 109.86 270.536C102.29 270.56 94.7201 270.569 87.1501 270.559C81.339 270.553 75.5282 270.574 69.7172 270.604C67.3381 270.612 64.9589 270.612 62.5798 270.602C59.3247 270.591 56.0711 270.61 52.8162 270.636C51.8804 270.626 50.9445 270.615 49.9803 270.604C40.9647 270.741 33.4034 274.468 26.7923 280.549C21.6842 286.083 18.5247 292.168 16.1986 299.276C15.8686 299.276 15.5386 299.276 15.1986 299.276C15.153 266.799 15.1176 234.322 15.0965 201.845C15.094 198.01 15.0914 194.175 15.0887 190.34C15.0882 189.577 15.0877 188.813 15.0871 188.026C15.0784 175.668 15.0627 163.309 15.0443 150.951C15.0256 138.267 15.0145 125.584 15.0104 112.901C15.0077 105.076 14.999 97.2512 14.9828 89.4265C14.9709 83.424 14.9697 77.4216 14.9724 71.4192C14.9718 68.9586 14.9678 66.4979 14.9602 64.0373C14.9502 60.6769 14.9526 57.3168 14.9581 53.9564C14.9523 52.9836 14.9464 52.0108 14.9404 51.0085C14.9886 40.0329 17.7186 32.1956 25.2416 24.0685C32.7826 16.8745 41.6177 13.1477 52.0774 13.1525Z" fill="#98CB75"/>
<path d="M348.503 30.3807C362.853 40.4671 373.344 53.9547 377.199 71.2753C377.619 75.1818 377.676 79.0361 377.636 82.9628C377.628 84.015 377.619 85.0671 377.611 86.1512C377.252 102.823 371.977 116.911 360.417 129.182C352.915 136.261 344.898 140.875 335.199 144.275C334.362 144.595 333.525 144.915 332.663 145.244C317.304 150.372 301.207 147.605 286.886 140.9C271.262 132.584 259.712 119.119 254.199 102.275C253.973 101.595 253.747 100.914 253.515 100.213C249.319 84.9346 252.213 67.5591 259.886 53.9003C268.68 39.1522 281.255 28.9804 297.347 23.1307C314.152 19.3981 333.636 21.6156 348.503 30.3807Z" fill="#73B569"/>
<path d="M47.1985 13.2754C137.288 13.2754 227.378 13.2754 320.198 13.2754C320.198 13.6054 320.198 13.9354 320.198 14.2754C235.058 14.2754 149.918 14.2754 62.1985 14.2754C62.1985 98.4254 62.1985 182.575 62.1985 269.275C137.438 269.275 212.678 269.275 290.198 269.275C290.198 269.605 290.198 269.935 290.198 270.275C288.93 270.276 287.661 270.276 286.353 270.277C256.211 270.291 226.07 270.331 195.928 270.402C192.216 270.411 188.503 270.42 184.791 270.428C184.052 270.43 183.313 270.431 182.551 270.433C170.595 270.46 158.639 270.469 146.682 270.471C134.408 270.474 122.134 270.496 109.86 270.536C102.29 270.56 94.7199 270.569 87.15 270.559C81.3389 270.553 75.5281 270.573 69.7171 270.603C67.338 270.612 64.9588 270.611 62.5796 270.602C59.3246 270.59 56.071 270.61 52.8161 270.636C51.8802 270.625 50.9444 270.615 49.9802 270.604C40.9646 270.741 33.4032 274.468 26.7922 280.549C21.6841 286.083 18.5245 292.168 16.1985 299.275C15.8685 299.275 15.5385 299.275 15.1985 299.275C15.1985 263.635 15.1985 227.995 15.1985 191.275C15.8585 191.935 16.5185 192.595 17.1985 193.275C17.8172 192.801 18.436 192.327 19.0735 191.838C22.7771 189.986 25.8063 189.747 29.8938 189.486C32.3574 189.349 31.3574 188.349 34.1985 187.275C34.9056 185.625 36.5641 184.955 37.1985 183.275C38.4918 181.249 39.8282 179.25 41.1985 177.275C41.8585 176.244 42.5185 175.213 43.1985 174.15C45.1985 171.275 45.1985 171.275 47.1985 169.4C53.9986 162.175 53.7825 154.457 53.7444 145.057C53.7531 143.627 53.7636 142.197 53.7757 140.767C53.8035 136.906 53.807 133.046 53.806 129.185C53.8091 125.142 53.8348 121.099 53.858 117.057C53.8985 109.411 53.9189 101.765 53.9319 94.1188C53.9478 85.4101 53.9863 76.7015 54.0265 67.9929C54.1088 50.0871 54.163 32.1813 54.1985 14.2754C51.8885 14.2754 49.5785 14.2754 47.1985 14.2754C47.1985 13.9454 47.1985 13.6154 47.1985 13.2754Z" fill="#6FB262"/>
<path d="M94.0364 294.162C96.2949 294.162 98.5534 294.162 100.812 294.161C106.895 294.161 112.979 294.167 119.063 294.174C125.438 294.18 131.813 294.181 138.189 294.182C148.874 294.185 159.56 294.191 170.245 294.2C181.243 294.209 192.24 294.216 203.238 294.22C203.918 294.221 204.598 294.221 205.298 294.221C208.709 294.222 212.12 294.224 215.531 294.225C243.754 294.235 271.976 294.253 300.198 294.275C298.48 299.124 296.862 300.886 292.198 303.275C289.438 303.689 287.071 303.88 284.312 303.885C283.096 303.909 283.096 303.909 281.856 303.935C279.074 303.985 276.293 304.005 273.511 304.025C271.498 304.053 269.485 304.083 267.472 304.113C229.387 304.608 191.285 304.357 153.198 304.275C153.198 305.595 153.198 306.915 153.198 308.275C218.043 308.77 218.043 308.77 284.198 309.275C283.868 309.935 283.538 310.595 283.198 311.275C282.208 311.275 281.218 311.275 280.198 311.275C280.198 311.935 280.198 312.595 280.198 313.275C279.355 313.625 278.512 313.974 277.644 314.334C276 315.016 276 315.016 274.323 315.713C272.688 316.391 272.688 316.391 271.019 317.084C269.393 317.771 267.777 318.486 266.198 319.275C264.526 319.368 262.85 319.397 261.175 319.395C260.112 319.397 259.049 319.398 257.954 319.4C256.783 319.396 255.612 319.392 254.405 319.389C253.176 319.389 251.947 319.389 250.68 319.389C247.304 319.389 243.928 319.384 240.553 319.377C237.027 319.37 233.5 319.37 229.974 319.369C223.295 319.365 216.616 319.357 209.936 319.347C202.333 319.336 194.73 319.331 187.126 319.325C171.484 319.315 155.841 319.297 140.198 319.275C140.198 314.655 140.198 310.035 140.198 305.275C138.204 305.28 136.21 305.286 134.156 305.291C127.582 305.307 121.008 305.319 114.434 305.327C110.447 305.332 106.46 305.339 102.472 305.351C98.6272 305.361 94.7823 305.367 90.9374 305.37C89.4673 305.372 87.9972 305.376 86.5271 305.381C84.4749 305.388 82.4228 305.389 80.3706 305.389C78.6152 305.392 78.6152 305.392 76.8244 305.395C74.1985 305.275 74.1985 305.275 73.1985 304.275C71.5659 304.118 69.9271 304.024 68.2883 303.959C67.299 303.917 66.3096 303.875 65.2903 303.832C64.2494 303.793 63.2084 303.753 62.136 303.713C61.0912 303.669 60.0464 303.626 58.97 303.582C56.3796 303.475 53.7892 303.373 51.1985 303.275C51.511 300.4 51.511 300.4 52.1985 297.275C61.9369 290.783 82.6185 294.141 94.0364 294.162Z" fill="#D6E7CB"/>
<path d="M199.198 134.275C232.198 134.275 232.198 134.275 234.198 135.275C234.222 146.602 234.239 157.928 234.25 169.254C234.256 174.512 234.263 179.771 234.274 185.03C234.285 190.1 234.291 195.17 234.293 200.241C234.295 202.18 234.299 204.119 234.304 206.058C234.311 208.764 234.312 211.47 234.312 214.176C234.316 214.985 234.319 215.795 234.323 216.63C234.313 222.161 234.313 222.161 233.198 223.275C221.978 223.275 210.758 223.275 199.198 223.275C199.198 193.905 199.198 164.535 199.198 134.275Z" fill="#82BF6C"/>
<path d="M151.198 157.275C162.748 157.275 174.298 157.275 186.198 157.275C186.198 179.055 186.198 200.835 186.198 223.275C174.648 223.275 163.098 223.275 151.198 223.275C151.198 201.495 151.198 179.715 151.198 157.275Z" fill="#7CBC67"/>
<path d="M81.1985 315.275C97.6985 315.275 114.198 315.275 131.198 315.275C131.198 329.795 131.198 344.315 131.198 359.275C123.68 357.225 117.83 355.398 111.023 352.166C104.636 350.152 98.4118 353.546 92.4485 355.838C90.7465 356.488 89.0434 357.135 87.3391 357.779C86.5918 358.066 85.8444 358.353 85.0745 358.649C83.1985 359.275 83.1985 359.275 81.1985 359.275C81.1985 344.755 81.1985 330.235 81.1985 315.275Z" fill="#FADA75"/>
<path d="M350.198 55.2753C353.22 57.2685 354.714 58.8024 355.855 62.2723C356.461 65.6893 356.818 68.1758 355.072 71.2757C353.311 73.3207 351.453 75.1459 349.472 76.9784C348.772 77.6641 348.072 78.3498 347.351 79.0563C345.114 81.2373 342.845 83.381 340.573 85.5253C339.067 86.9813 337.563 88.4396 336.062 89.9003C333.295 92.5859 330.515 95.2574 327.719 97.913C324.161 101.297 320.691 104.756 317.249 108.26C316.389 109.134 316.389 109.134 315.511 110.025C314.93 110.618 314.348 111.211 313.749 111.822C311.694 113.748 310.356 114.245 307.573 114.775C302.326 113.998 299.884 110.943 296.198 107.275C295.623 106.707 295.047 106.138 294.454 105.552C290.573 101.715 286.709 97.8596 282.886 93.9638C281.39 92.4672 279.839 91.0268 278.281 89.5956C276.022 87.0782 275.515 86.0997 275.573 82.7753C275.789 79.2922 276.226 78.2347 278.261 75.2128C282.086 72.69 283.691 72.3586 288.198 73.2753C291.183 75.2838 293.636 77.7625 296.198 80.2753C298.026 81.9276 299.859 83.5734 301.698 85.2128C303.199 86.5664 304.699 87.9204 306.198 89.2753C309.195 87.9369 311.209 86.4856 313.463 84.1108C314.078 83.4703 314.692 82.8297 315.325 82.1698C316.307 81.1354 316.307 81.1354 317.308 80.08C318.716 78.6273 320.125 77.1755 321.534 75.7245C323.747 73.4378 325.953 71.1457 328.143 68.8373C330.263 66.6081 332.408 64.4052 334.558 62.205C335.204 61.5113 335.85 60.8176 336.516 60.1029C341.085 55.4823 343.691 54.3022 350.198 55.2753Z" fill="#FAFDFA"/>
<path d="M104.198 180.275C115.418 180.275 126.638 180.275 138.198 180.275C138.198 194.135 138.198 207.995 138.198 222.275C126.978 222.275 115.758 222.275 104.198 222.275C104.198 208.415 104.198 194.555 104.198 180.275Z" fill="#78B968"/>
<path d="M98.1985 107.276C107.925 107.206 117.652 107.153 127.379 107.12C131.896 107.105 136.412 107.083 140.929 107.049C145.286 107.017 149.643 106.999 154 106.991C155.664 106.985 157.328 106.975 158.992 106.958C161.319 106.937 163.646 106.934 165.973 106.935C166.664 106.924 167.354 106.913 168.066 106.902C170.888 106.921 172.771 106.984 175.138 108.598C176.734 111.123 176.392 113.367 176.198 116.276C173.223 117.763 170.53 117.411 167.21 117.421C166.491 117.424 165.773 117.428 165.032 117.431C162.65 117.441 160.268 117.442 157.886 117.444C156.235 117.447 154.583 117.45 152.932 117.454C149.468 117.46 146.005 117.461 142.541 117.461C138.096 117.461 133.65 117.474 129.204 117.492C125.793 117.503 122.383 117.505 118.972 117.504C117.332 117.505 115.693 117.51 114.053 117.518C111.764 117.527 109.476 117.525 107.187 117.519C105.231 117.521 105.231 117.521 103.235 117.523C100.198 117.276 100.198 117.276 98.1985 115.276C97.9286 112.587 98.1111 109.984 98.1985 107.276Z" fill="#78B968"/>
<path d="M98.3814 82.6619C110.926 82.59 123.471 82.5348 136.016 82.501C141.841 82.4847 147.666 82.4627 153.491 82.4276C159.11 82.3939 164.73 82.3752 170.349 82.3672C172.495 82.3614 174.641 82.3502 176.787 82.3335C179.788 82.311 182.789 82.3078 185.791 82.3092C186.681 82.2981 187.572 82.2869 188.49 82.2754C192.13 82.2944 194.558 82.3601 197.611 84.0311C199.669 86.646 199.229 88.9704 198.979 91.9825C195.141 93.5231 191.667 93.1585 187.386 93.1686C186.459 93.172 185.532 93.1755 184.577 93.1791C181.505 93.189 178.433 93.191 175.361 93.1921C173.231 93.1954 171.101 93.1989 168.971 93.2025C164.504 93.2087 160.037 93.2106 155.571 93.21C149.837 93.2099 144.103 93.2241 138.37 93.2419C133.971 93.2534 129.572 93.2555 125.173 93.255C123.058 93.2562 120.944 93.2608 118.829 93.2688C115.877 93.2789 112.926 93.276 109.974 93.2697C107.451 93.2719 107.451 93.2719 104.877 93.2742C100.961 93.0181 100.961 93.0181 98.3814 90.9469C98.0333 88.1627 98.2687 85.467 98.3814 82.6619Z" fill="#78B968"/>
<path d="M98.4158 60.6619C113.321 60.59 128.225 60.5348 143.13 60.501C150.051 60.4847 156.972 60.4627 163.892 60.4276C170.569 60.3939 177.245 60.3752 183.922 60.3672C186.472 60.3614 189.021 60.3502 191.571 60.3335C195.137 60.311 198.702 60.3078 202.269 60.3092C203.327 60.2981 204.385 60.2869 205.475 60.2754C209.8 60.2944 212.685 60.3601 216.313 62.0311C218.757 64.646 218.234 66.9704 217.937 69.9825C213.378 71.5231 209.251 71.1585 204.164 71.1686C203.063 71.172 201.961 71.1755 200.826 71.1791C197.176 71.189 193.526 71.191 189.876 71.1921C187.346 71.1954 184.815 71.1989 182.285 71.2025C176.978 71.2087 171.67 71.2106 166.363 71.21C159.551 71.2099 152.739 71.2241 145.927 71.2419C140.7 71.2534 135.474 71.2555 130.247 71.255C127.735 71.2562 125.223 71.2608 122.711 71.2688C119.203 71.2789 115.696 71.276 112.189 71.2697C109.191 71.2719 109.191 71.2719 106.133 71.2742C101.48 71.0181 101.48 71.0181 98.4158 68.9469C98.0022 66.1627 98.2819 63.467 98.4158 60.6619Z" fill="#78B968"/>
<path d="M47.1985 13.2754C137.288 13.2754 227.378 13.2754 320.198 13.2754C320.198 13.6054 320.198 13.9354 320.198 14.2754C235.058 14.2754 149.918 14.2754 62.1985 14.2754C62.1985 29.7854 62.1985 45.2954 62.1985 61.2754C59.8885 61.2754 57.5785 61.2754 55.1985 61.2754C55.1985 92.2954 55.1985 123.315 55.1985 155.275C54.8685 155.275 54.5385 155.275 54.1985 155.275C54.1985 108.745 54.1985 62.2154 54.1985 14.2754C51.8885 14.2754 49.5785 14.2754 47.1985 14.2754C47.1985 13.9454 47.1985 13.6154 47.1985 13.2754Z" fill="#7CA574"/>
<path d="M72.1985 306.275C94.6385 306.275 117.078 306.275 140.198 306.275C140.198 309.245 140.198 312.215 140.198 315.275C137.558 315.275 134.918 315.275 132.198 315.275C132.198 329.795 132.198 344.315 132.198 359.275C131.868 359.275 131.538 359.275 131.198 359.275C131.198 344.755 131.198 330.235 131.198 315.275C112.388 315.275 93.5785 315.275 74.1985 315.275C74.1985 320.555 74.1985 325.835 74.1985 331.275C73.8685 331.275 73.5385 331.275 73.1985 331.275C72.8685 323.025 72.5385 314.775 72.1985 306.275Z" fill="#84AE7B"/>
<path d="M151.198 157.275C162.748 157.275 174.298 157.275 186.198 157.275C186.198 179.055 186.198 200.835 186.198 223.275C174.648 223.275 163.098 223.275 151.198 223.275C151.198 201.495 151.198 179.715 151.198 157.275ZM153.198 158.275C153.178 166.335 153.158 174.394 153.147 182.453C153.141 186.205 153.134 189.958 153.123 193.711C153.112 197.322 153.106 200.934 153.104 204.545C153.102 205.926 153.098 207.307 153.093 208.688C153.086 210.615 153.085 212.543 153.085 214.47C153.083 215.57 153.081 216.669 153.078 217.801C152.918 220.219 152.918 220.219 154.198 221.275C156.405 221.376 158.615 221.406 160.823 221.408C161.486 221.409 162.148 221.41 162.83 221.411C164.232 221.412 165.634 221.41 167.036 221.406C169.189 221.4 171.342 221.406 173.495 221.412C174.855 221.411 176.214 221.41 177.573 221.408C178.819 221.407 180.064 221.406 181.347 221.405C184.098 221.601 184.098 221.601 185.198 220.275C185.292 218.342 185.316 216.406 185.312 214.47C185.312 213.229 185.312 211.988 185.312 210.709C185.307 209.345 185.301 207.98 185.296 206.615C185.294 205.227 185.293 203.838 185.292 202.449C185.288 198.788 185.278 195.127 185.267 191.466C185.257 187.732 185.252 183.999 185.247 180.266C185.237 172.936 185.218 165.606 185.198 158.275C174.638 158.275 164.078 158.275 153.198 158.275Z" fill="#A0CA8E"/>
<path d="M81.1985 315.275C97.6985 315.275 114.198 315.275 131.198 315.275C131.198 329.795 131.198 344.315 131.198 359.275C130.868 359.275 130.538 359.275 130.198 359.275C130.198 345.085 130.198 330.895 130.198 316.275C114.688 316.275 99.1785 316.275 83.1985 316.275C83.5285 330.135 83.8585 343.995 84.1985 358.275C82.7135 358.77 82.7135 358.77 81.1985 359.275C81.1985 344.755 81.1985 330.235 81.1985 315.275Z" fill="#E4DB89"/>
<path d="M15.1985 191.275C15.8585 191.935 16.5185 192.595 17.1985 193.275C17.8585 192.945 18.5185 192.615 19.1985 192.275C19.0556 192.822 18.9126 193.369 18.7654 193.932C16.7238 203.102 16.969 212.233 17.0482 221.57C17.0739 224.638 17.0868 227.706 17.0964 230.774C17.1192 237.275 17.1577 243.775 17.1985 250.275C17.2457 257.839 17.2864 265.402 17.3104 272.966C17.3233 275.99 17.3483 279.014 17.3738 282.038C17.381 283.883 17.3877 285.728 17.3938 287.572C17.4041 288.414 17.4145 289.255 17.4251 290.122C17.4258 294.034 17.4194 295.944 15.1985 299.275C15.1985 263.635 15.1985 227.995 15.1985 191.275Z" fill="#72AC6E"/>
<path d="M292.198 26.2754C292.198 26.9354 292.198 27.5954 292.198 28.2754C291.208 28.2754 290.218 28.2754 289.198 28.2754C288.538 29.5954 287.878 30.9154 287.198 32.2754C284.888 32.2754 282.578 32.2754 280.198 32.2754C283.794 29.1936 287.265 26.2754 292.198 26.2754Z" fill="#81B177"/>
<path d="M279.198 32.2754C279.858 33.2654 280.518 34.2554 281.198 35.2754C277.953 37.3152 274.792 38.9405 271.198 40.2754C275.823 34.5254 275.823 34.5254 279.198 32.2754Z" fill="#82B377"/>
<path d="M258.198 57.2754C260.198 61.0254 260.198 61.0254 260.198 63.2754C259.538 63.9354 258.878 64.5954 258.198 65.2754C257.868 65.9354 257.538 66.5954 257.198 67.2754C256.538 67.2754 255.878 67.2754 255.198 67.2754C256.148 63.9211 257.096 60.5829 258.198 57.2754Z" fill="#81B477"/>
<path d="M336.198 25.2754C340.433 26.586 344.273 28.219 348.198 30.2754C346.636 31.0254 346.636 31.0254 344.198 31.2754C340.97 29.9147 337.815 28.509 336.198 25.2754Z" fill="#8ABC86"/>
<path d="M260.198 114.275C261.188 114.605 262.178 114.935 263.198 115.275C263.198 115.935 263.198 116.595 263.198 117.275C263.858 117.275 264.518 117.275 265.198 117.275C265.528 119.255 265.858 121.235 266.198 123.275C263.118 120.503 261.511 118.212 260.198 114.275Z" fill="#85B17E"/>
<path d="M314.198 83.2754C314.528 84.2654 314.858 85.2554 315.198 86.2754C314.208 86.6054 313.218 86.9354 312.198 87.2754C311.868 88.2654 311.538 89.2554 311.198 90.2754C310.208 89.9454 309.218 89.6154 308.198 89.2754C310.178 87.2954 312.158 85.3154 314.198 83.2754Z" fill="#EEFDED"/>
</svg>
